<?xml version="1.0" standalone="no"?><!DOCTYPE svg PUBLIC "-//W3C//DTD SVG 1.1//EN" "http://www.w3.org/Graphics/SVG/1.1/DTD/svg11.dtd"><svg t="1670230480943" class="icon" viewBox="0 0 1025 1024" version="1.1" xmlns="http://www.w3.org/2000/svg" p-id="2991" width="64.0625" height="64" xmlns:xlink="http://www.w3.org/1999/xlink"><path d="M1019.799983 449.320421C1020.689246 456.730947 1021.335983 464.195368 1021.98272 471.686737 1023.033667 485.025684 1024.03072 498.364632 1024.03072 511.973053 1024.03072 525.581474 1023.033667 538.920421 1021.98272 552.259368 1021.335983 559.723789 1020.689246 567.215158 1019.799983 574.598737 1019.799983 574.598737 1019.799983 574.598737 1019.826931 574.598737 1017.428615 594.108632 1013.817667 613.187368 1009.317457 631.969684 960.919983 643.934316 914.866931 676.971789 885.602088 727.659789 856.337246 778.347789 850.759141 834.775579 864.556194 882.634105 850.489667 896.026947 835.61472 908.503579 820.093036 920.225684 820.093036 920.198737 820.066088 920.198737 820.066088 920.171789 795.867352 938.442105 770.051773 954.664421 742.834931 968.542316 742.700194 968.623158 742.538509 968.704 742.403773 968.757895 729.091773 975.548632 715.429457 981.746526 701.443773 987.351579 700.311983 987.809684 699.126299 988.16 697.994509 988.618105 684.57472 993.899789 670.939352 998.723368 656.980615 1002.846316 622.434088 966.790737 570.695141 943.346526 512.03072 943.346526 453.366299 943.346526 401.627352 966.817684 367.080825 1002.846316 367.080825 1002.846316 367.080825 1002.846316 367.080825 1002.846316 353.122088 998.723368 339.48672 993.899789 326.066931 988.618105 324.908194 988.16 323.749457 987.809684 322.59072 987.351579 308.631983 981.746526 294.969667 975.548632 281.657667 968.757895 281.495983 968.704 281.361246 968.623158 281.226509 968.542316 254.009667 954.664421 228.194088 938.442105 203.995352 920.171789 203.968404 920.198737 203.968404 920.198737 203.968404 920.225684 188.44672 908.503579 173.544825 896.026947 159.478299 882.634105 173.302299 834.775579 167.724194 778.347789 138.459352 727.659789 109.194509 676.971789 63.114509 643.934316 14.743983 631.969684 10.243773 613.187368 6.632825 594.108632 4.234509 574.625684 4.261457 574.625684 4.261457 574.625684 4.261457 574.625684 3.372194 567.215158 2.725457 559.723789 2.051773 552.259368 1.027773 538.920421 0.03072 525.581474 0.03072 511.973053 0.03072 498.364632 1.027773 485.025684 2.051773 471.686737 2.725457 464.195368 3.372194 456.730947 4.261457 449.320421 4.261457 449.320421 4.261457 449.320421 4.234509 449.320421 6.632825 429.837474 10.243773 410.731789 14.743983 391.976421 63.114509 380.011789 109.167562 346.974316 138.432404 296.286316 167.697246 245.598316 173.275352 189.197474 159.478299 141.312 173.544825 127.919158 188.419773 115.469474 203.941457 103.720421 203.941457 103.747368 203.968404 103.774316 203.968404 103.801263 228.167141 85.530947 254.009667 69.281684 281.226509 55.376842 281.361246 55.322947 281.495983 55.269053 281.63072 55.188211 294.969667 48.397474 308.631983 42.199579 322.617667 36.594526 323.749457 36.136421 324.908194 35.786105 326.039983 35.328 339.459773 30.046316 353.122088 25.222737 367.107773 21.099789 401.654299 57.128421 453.393246 80.572632 512.03072 80.572632 570.668194 80.572632 622.407141 57.128421 656.953667 21.099789 670.939352 25.222737 684.57472 30.046316 698.021457 35.328 699.153246 35.786105 700.311983 36.136421 701.443773 36.594526 715.429457 42.199579 729.091773 48.397474 742.43072 55.188211 742.565457 55.269053 742.700194 55.322947 742.834931 55.376842 770.051773 69.281684 795.867352 85.530947 820.093036 103.801263 820.093036 103.774316 820.093036 103.747368 820.119983 103.720421 835.641667 115.469474 850.516615 127.919158 864.583141 141.312 850.786088 189.197474 856.364194 245.598316 885.629036 296.286316 914.893878 346.974316 960.946931 380.011789 1009.290509 391.976421 1013.817667 410.731789 1017.428615 429.810526 1019.799983 449.320421 1019.799983 449.320421 1019.799983 449.320421 1019.799983 449.320421ZM963.291352 433.825684C913.923773 413.345684 869.218088 375.511579 839.010088 323.179789 808.936825 271.090526 798.481246 213.746526 805.218088 160.956632 765.201246 127.568842 719.579352 100.621474 669.699773 82.324211 627.311562 114.714947 572.311983 134.413474 512.03072 134.413474 451.749457 134.413474 396.749878 114.714947 354.361667 82.324211 304.482088 100.621474 258.860194 127.568842 218.816404 160.956632 225.580194 213.746526 215.097667 271.090526 185.024404 323.179789 154.843352 375.511579 110.137667 413.345684 60.770088 433.825684 56.377667 459.237053 53.925457 485.295158 53.925457 511.973053 53.925457 538.650947 56.377667 564.709053 60.770088 590.120421 110.137667 610.573474 154.843352 648.434526 185.078299 700.739368 215.151562 752.828632 225.607141 810.199579 218.843352 863.016421 258.860194 896.377263 304.482088 923.324632 354.33472 941.621895 396.722931 909.231158 451.749457 889.505684 512.03072 889.505684 572.311983 889.505684 627.338509 909.231158 669.72672 941.621895 719.579352 923.324632 765.174299 896.377263 805.218088 863.016421 798.427352 810.199579 808.909878 752.828632 838.983141 700.739368 869.191141 648.434526 913.896825 610.573474 963.291352 590.093474 967.656825 564.709053 970.135983 538.650947 970.135983 511.973053 970.135983 485.295158 967.656825 459.237053 963.291352 433.825684ZM512.03072 700.335158C407.986931 700.335158 323.641667 615.989895 323.641667 511.946105 323.641667 407.929263 407.986931 323.584 512.03072 323.584 616.047562 323.584 700.392825 407.929263 700.392825 511.946105 700.392825 615.989895 616.047562 700.335158 512.03072 700.335158ZM512.03072 377.559579C437.79072 377.559579 377.644194 437.733053 377.644194 511.946105 377.644194 586.186105 437.79072 646.359579 512.03072 646.359579 586.243773 646.359579 646.417246 586.186105 646.417246 511.946105 646.417246 437.733053 586.243773 377.559579 512.03072 377.559579Z" p-id="2992" fill="#fefefe"></path></svg>